<?xml version="1.0" encoding="utf-8"?>
<!-- Generator: Adobe Illustrator 28.4.1, SVG Export Plug-In . SVG Version: 6.00 Build 0)  -->
<svg version="1.1" id="图层_1" xmlns="http://www.w3.org/2000/svg" xmlns:xlink="http://www.w3.org/1999/xlink" x="0px" y="0px"
	 viewBox="0 0 456 456" style="enable-background:new 0 0 456 456;" xml:space="preserve">
<style type="text/css">
	.st0{display:none;fill:#FFFFFF;stroke:#FFFFFF;stroke-width:2.5115;stroke-linecap:round;stroke-linejoin:round;}
	.st1{display:none;fill:#FFFFFF;stroke:#000000;stroke-width:3;stroke-miterlimit:10;}
	.st2{fill:#FFFFFF;stroke:#000000;stroke-width:3;stroke-miterlimit:10;}
	.st3{font-family:'Consolas-Bold';}
	.st4{font-size:60px;}
</style>
<path class="st0" d="M265.5,114c-4.6-2.4-14.8-5.1-11.9,1.3c14.5,23.2,6.2,28.2,7.9,25c-13.3,3.8-37,33.7-61.2,33.5
	c27.6,24.2,46,9.7,46,9.7c10,22.8-1.1,30-17.1,31.6s-37.1-2.5-46.5-2.3c-9.3,0.3-21.6,1.3-31.3,6.4c0,0-16.9-2.1-27.4-12.8
	c-8.3-8.5,13.2,33.3,13.2,33.3c0.4,25.7,9.2,42.9,9.2,42.9c3.3,6.5-0.6,17.3-2.3,22.8l0.3,38.6l19.5-0.5l-0.8-23.1
	c0,0,0.3-14.8,7.5-25.1c-0.9,14.2,4.1,25.4,1.6,43.4c0,0,19.4-0.1,19.3-0.5c-4.6-20.5,1.5-44.5,1.5-44.5c27.9,2.8,40-2.7,40-2.7
	c3.7,24.6,2.9,16.2,4.4,52.3c0,0.8,18.5,0.1,18.5,0.1c-1.8-38.5-1.1-50.4-1.1-50.4s7.1,22,11.3,43.2c0.2,1,20.2,0.6,19.8-0.8
	c-15.5-48.6-12-68.4-12-68.4c4-4.8,19-26.6,19.6-49.1c12.4,3.2,40.6,8.1,41.4-7.3c7-2.9,13.7-7.4,12.8-14.9
	c-1.2-9.7-13.6-14.7-21.8-27.7c17.3,2.2,24.4,0.4,19.3-1.1c-7.2-2.1-21-9.8-21-9.8c0.1-5.7-7.7-11.1-7.7-11.1
	c3.3-13.1-11.9-24.6-19.7-29.6c-4.6-2.4-14.8-5.1-11.9,1.3c14.5,23.2,8.9,19.6,10.6,20.9c-7.4-2-7.5-1.6-7.5-1.6
	C284,126.8,273.3,119,265.5,114L265.5,114z"/>
<path class="st1" d="M108,268v64h32v32h192v-32h32v-64H108z M316,348H156v-48h160V348z M300,204v-64l-43.2-32H172v96h-64v48h256v-48
	H300z M252,124l20.8,16H252V124z M284,220h-96v-96h48v32h48V220z M348,236h-16v-16h16V236z"/>
<path class="st2" d="M326.1,101.3v59.9H145.9v-59.9H326.1z M340.9,236.5c8.5,0,15.5-6.3,15.5-14.8c0-8.5-7-15.5-15.5-15.5
	c-8.5,0-14.8,7-14.8,15.5C326.1,230.2,332.5,236.5,340.9,236.5z M295.9,341.4v-74.6H176.1v74.6H295.9z M340.9,176.6
	c24.6,0,45.1,20.4,45.1,45.1v90.1h-59.9v59.9H145.9v-59.9H86v-90.1c0-24.6,20.4-45.1,45.1-45.1H340.9z"/>
<text transform="matrix(1 0 0 1 169.8592 243.5)" class="st3 st4">CPCL</text>
</svg>
